Coordinates
version=1
nRows=29
nColumns=24
inDegrees=yes

Units are S.I. units (second, meters, Newtons, ...)
Angles are in degrees.

endheader
time	pelvis_tilt	pelvis_list	pelvis_rotation	pelvis_tx	pelvis_ty	pelvis_tz	hip_flexion_r	hip_adduction_r	hip_rotation_r	knee_angle_r	ankle_angle_r	subtalar_angle_r	mtp_angle_r	hip_flexion_l	hip_adduction_l	hip_rotation_l	knee_angle_l	ankle_angle_l	subtalar_angle_l	mtp_angle_l	lumbar_extension	lumbar_bending	lumbar_rotation
      0.01000000	     92.94863047	     17.59688601	    -94.17118891	      0.35555695	      0.28509570	      1.01421349	      5.12791262	     -6.08390916	     -6.44909986	    -10.57027785	    -46.54377250	     -1.74545602	    -25.17324631	    -11.42102426	    -16.94083319	    -11.32463903	    -60.52207813	    -24.49043192	     -0.14557499	     73.45799169	      0.00000000	      0.00000000	      0.00000000
      0.02000000	     92.95189325	     17.60039323	    -94.16789339	      0.35554679	      0.28510555	      1.01419248	      5.12652617	     -6.08740930	     -6.46199635	    -10.57072689	    -46.55854570	     -1.74545602	    -25.17324631	    -11.42287378	    -16.93874881	    -11.32590031	    -60.51970561	    -24.49196642	     -0.14557499	     73.45799169	      0.00000000	      0.00000000	      0.00000000
      0.03000000	     92.95449871	     17.60146990	    -94.16760633	      0.35555186	      0.28510545	      1.01418383	      5.12849527	     -6.09079443	     -6.47418492	    -10.56871659	    -46.57033810	     -1.74545602	    -25.17324631	    -11.42463953	    -16.93792825	    -11.32623942	    -60.51849970	    -24.49335659	     -0.14557499	     73.45799169	      0.00000000	      0.00000000	      0.00000000
      0.04000000	     92.95679421	     17.60168003	    -94.16897849	      0.35557118	      0.28509864	      1.01419339	      5.13191267	     -6.09365591	     -6.48482882	    -10.56467262	    -46.57719810	     -1.74545602	    -25.17324631	    -11.42597936	    -16.93808950	    -11.32575714	    -60.51806552	    -24.49444096	     -0.14557499	     73.45799169	      0.00000000	      0.00000000	      0.00000000
      0.05000000	     92.95859526	     17.60198889	    -94.17074721	      0.35558974	      0.28509181	      1.01420496	      5.13514417	     -6.09584401	     -6.49307850	    -10.55893703	    -46.57694856	     -1.74545602	    -25.17324631	    -11.42629443	    -16.93889472	    -11.32464466	    -60.51777827	    -24.49500703	     -0.14557499	     73.45799169	      0.00000000	      0.00000000	      0.00000000
      0.06000000	     92.95953153	     17.60255851	    -94.17178508	      0.35559244	      0.28509056	      1.01420195	      5.13729241	     -6.09754222	     -6.49854930	    -10.55181287	    -46.56810500	     -1.74545602	    -25.17324631	    -11.42522819	    -16.94010385	    -11.32307593	    -60.51695429	    -24.49487838	     -0.14557499	     73.45799169	      0.00000000	      0.00000000	      0.00000000
      0.07000000	     92.95973526	     17.60335082	    -94.17095117	      0.35558138	      0.28509568	      1.01418824	      5.13797060	     -6.09901470	     -6.50163759	    -10.54392185	    -46.55063968	     -1.74545602	    -25.17324631	    -11.42323738	    -16.94158272	    -11.32112529	    -60.51513117	    -24.49399810	     -0.14557499	     73.45799169	      0.00000000	      0.00000000	      0.00000000
      0.08000000	     92.95991421	     17.60447206	    -94.16741107	      0.35557419	      0.28510257	      1.01418381	      5.13697081	     -6.10042258	     -6.50347898	    -10.53648934	    -46.52631431	     -1.74545602	    -25.17324631	    -11.42151869	    -16.94315545	    -11.31883624	    -60.51226919	    -24.49245018	     -0.14557499	     73.45799169	      0.00000000	      0.00000000	      0.00000000
      0.09000000	     92.96072391	     17.60575213	    -94.16137491	      0.35558207	      0.28510673	      1.01420047	      5.13432561	     -6.10190719	     -6.50553765	    -10.53115025	    -46.49843297	     -1.74545602	    -25.17324631	    -11.42126556	    -16.94454449	    -11.31633149	    -60.50873037	    -24.49041706	     -0.14557499	     73.45799169	      0.00000000	      0.00000000	      0.00000000
      0.10000000	     92.96226776	     17.60632521	    -94.15434610	      0.35559621	      0.28510951	      1.01422591	      5.13050583	     -6.10364584	     -6.50907091	    -10.52939017	    -46.47113826	     -1.74545602	    -25.17324631	    -11.42298719	    -16.94545198	    -11.31384142	    -60.50508881	    -24.48811171	     -0.14557499	     73.45799169	      0.00000000	      0.00000000	      0.00000000
      0.11000000	     92.96421450	     17.60503407	    -94.14827835	      0.35560314	      0.28511414	      1.01424161	      5.12624685	     -6.10573747	     -6.51474769	    -10.53203269	    -46.44852526	     -1.74545602	    -25.17324631	    -11.42645235	    -16.94563518	    -11.31167164	    -60.50191309	    -24.48571210	     -0.14557499	     73.45799169	      0.00000000	      0.00000000	      0.00000000
      0.12000000	     92.96618320	     17.60140401	    -94.14440206	      0.35560144	      0.28512071	      1.01424361	      5.12205053	     -6.10811657	     -6.52253640	    -10.53901137	    -46.43382744	     -1.74545602	    -25.17324631	    -11.43107749	    -16.94496107	    -11.31014263	    -60.49959687	    -24.48332323	     -0.14557499	     73.45799169	      0.00000000	      0.00000000	      0.00000000
      0.13000000	     92.96797405	     17.59623431	    -94.14273317	      0.35559681	      0.28512745	      1.01423914	      5.11786207	     -6.11061092	     -6.53183734	    -10.54942878	    -46.42885542	     -1.74545602	    -25.17324631	    -11.43623013	    -16.94348885	    -11.30950061	    -60.49827408	    -24.48098697	     -0.14557499	     73.45799169	      0.00000000	      0.00000000	      0.00000000
      0.14000000	     92.96957752	     17.59118461	    -94.14242345	      0.35559220	      0.28513285	      1.01423565	      5.11333905	     -6.11305135	     -6.54175316	    -10.56176701	    -46.43377733	     -1.74545602	    -25.17324631	    -11.44123915	    -16.94152125	    -11.30982275	    -60.49785700	    -24.47872746	     -0.14557499	     73.45799169	      0.00000000	      0.00000000	      0.00000000
      0.15000000	     92.97109133	     17.58771514	    -94.14249024	      0.35558796	      0.28513631	      1.01423691	      5.10858591	     -6.11530820	     -6.55136776	    -10.57416460	    -46.44722768	     -1.74545602	    -25.17324631	    -11.44536011	    -16.93953235	    -11.31100317	    -60.49821575	    -24.47660292	     -0.14557499	     73.45799169	      0.00000000	      0.00000000	      0.00000000
      0.16000000	     92.97264893	     17.58641604	    -94.14246011	      0.35558608	      0.28513847	      1.01424278	      5.10453259	     -6.11725947	     -6.55993868	    -10.58489855	    -46.46667404	     -1.74545602	    -25.17324631	    -11.44786430	    -16.93799113	    -11.31286662	    -60.49936351	    -24.47473162	     -0.14557499	     73.45799169	      0.00000000	      0.00000000	      0.00000000
      0.17000000	     92.97430702	     17.58720876	    -94.14267998	      0.35558894	      0.28514030	      1.01424983	      5.10248642	     -6.11878406	     -6.56697668	    -10.59301565	    -46.48889333	     -1.74545602	    -25.17324631	    -11.44818798	    -16.93715672	    -11.31531658	    -60.50145293	    -24.47327849	     -0.14557499	     73.45799169	      0.00000000	      0.00000000	      0.00000000
      0.18000000	     92.97587551	     17.58980574	    -94.14412438	      0.35559499	      0.28514139	      1.01425446	      5.10347933	     -6.11979988	     -6.57225746	    -10.59857992	    -46.51034190	     -1.74545602	    -25.17324631	    -11.44611735	    -16.93691715	    -11.31839275	    -60.50458107	    -24.47241869	     -0.14557499	     73.45799169	      0.00000000	      0.00000000	      0.00000000
      0.19000000	     92.97691764	     17.59384549	    -94.14777270	      0.35559997	      0.28513973	      1.01425454	      5.10794316	     -6.12025201	     -6.57580687	    -10.60229417	    -46.52735755	     -1.74545602	    -25.17324631	    -11.44194344	    -16.93681313	    -11.32217247	    -60.50855019	    -24.47229939	     -0.14557499	     73.45799169	      0.00000000	      0.00000000	      0.00000000
      0.20000000	     92.97704172	     17.59884050	    -94.15393398	      0.35560092	      0.28513438	      1.01424796	      5.11556160	     -6.12004586	     -6.57784992	    -10.60487994	    -46.53635734	     -1.74545602	    -25.17324631	    -11.43645714	    -16.93633161	    -11.32654237	    -60.51274482	    -24.47300813	     -0.14557499	     73.45799169	      0.00000000	      0.00000000	      0.00000000
      0.21000000	     92.97619769	     17.60425048	    -94.16187988	      0.35559653	      0.28512818	      1.01423313	      5.12515752	     -6.11909755	     -6.57871060	    -10.60665954	    -46.53421787	     -1.74545602	    -25.17324631	    -11.43077551	    -16.93530799	    -11.33099254	    -60.51624215	    -24.47454268	     -0.14557499	     73.45799169	      0.00000000	      0.00000000	      0.00000000
      0.22000000	     92.97470476	     17.60960884	    -94.16989115	      0.35558768	      0.28512506	      1.01421320	      5.13485029	     -6.11749422	     -6.57871938	    -10.60747307	    -46.51890092	     -1.74545602	    -25.17324631	    -11.42611159	    -16.93410609	    -11.33463851	    -60.51818017	    -24.47678895	     -0.14557499	     73.45799169	      0.00000000	      0.00000000	      0.00000000
      0.23000000	     92.97301116	     17.61432251	    -94.17578849	      0.35558013	      0.28512503	      1.01419889	      5.14274025	     -6.11556847	     -6.57821252	    -10.60682329	    -46.49023033	     -1.74545602	    -25.17324631	    -11.42349122	    -16.93342945	    -11.33652810	    -60.51820490	    -24.47952051	     -0.14557499	     73.45799169	      0.00000000	      0.00000000	      0.00000000
      0.24000000	     92.97131629	     17.61729545	    -94.17795450	      0.35557835	      0.28512591	      1.01419995	      5.14774263	     -6.11384768	     -6.57761934	    -10.60419453	    -46.45056575	     -1.74545602	    -25.17324631	    -11.42339118	    -16.93395219	    -11.33604947	    -60.51669893	    -24.48241902	     -0.14557499	     73.45799169	      0.00000000	      0.00000000	      0.00000000
      0.25000000	     92.96948632	     17.61727465	    -94.17617272	      0.35557693	      0.28512717	      1.01421347	      5.14962428	     -6.11283170	     -6.57757898	    -10.59965193	    -46.40504307	     -1.74545602	    -25.17324631	    -11.42554869	    -16.93598126	    -11.33320876	    -60.51466385	    -24.48511818	     -0.14557499	     73.45799169	      0.00000000	      0.00000000	      0.00000000
      0.26000000	     92.96748495	     17.61390542	    -94.17152273	      0.35556927	      0.28512950	      1.01422734	      5.14824900	     -6.11264034	     -6.57903122	    -10.59438686	    -46.36105785	     -1.74545602	    -25.17324631	    -11.42922171	    -16.93927100	    -11.32866337	    -60.51333982	    -24.48727693	     -0.14557499	     73.45799169	      0.00000000	      0.00000000	      0.00000000
      0.27000000	     92.96566058	     17.60797693	    -94.16558170	      0.35555803	      0.28513391	      1.01423281	      5.14345021	     -6.11299455	     -6.58316512	    -10.59035055	    -46.32681679	     -1.74545602	    -25.17324631	    -11.43376876	    -16.94313148	    -11.32350263	    -60.51373015	    -24.48866499	     -0.14557499	     73.45799169	      0.00000000	      0.00000000	      0.00000000
      0.28000000	     92.96445674	     17.60041506	    -94.15969621	      0.35554931	      0.28514051	      1.01423144	      5.13576951	     -6.11368113	     -6.59111392	    -10.58909474	    -46.30929952	     -1.74545602	    -25.17324631	    -11.43905996	    -16.94681144	    -11.31888568	    -60.51621125	    -24.48921559	     -0.14557499	     73.45799169	      0.00000000	      0.00000000	      0.00000000
      0.29000000	     92.96407331	     17.59147137	    -94.15475965	      0.35554498	      0.28514697	      1.01423006	      5.12659030	     -6.11488943	     -6.60348922	    -10.59104471	    -46.31242047	     -1.74545602	    -25.17324631	    -11.44541071	    -16.94988971	    -11.31571045	    -60.52035663	    -24.48900712	     -0.14557499	     73.45799169	      0.00000000	      0.00000000	      0.00000000
